/* XPM */
static char *c8096be2cf184801f59700be6f1dd5cbb7WXqGJt7q81nrkH[] = {
/* columns rows colors chars-per-pixel */
"64 64 21 1 ",
"  c black",
". c #080605",
"X c #07060B",
"o c #0B0B0B",
"O c #1E0703",
"+ c #17110F",
"@ c #2A0C07",
"# c #310F09",
"$ c #261C18",
"% c #391812",
"& c #1C1A2E",
"* c #272727",
"= c #5F3028",
"- c #663931",
"; c #764138",
": c #2E385B",
"> c gray39",
", c #D1986E",
"< c #A5A5A5",
"1 c #E8B88A",
"2 c #F0D2B5",
/* pixels */
"###############################;==;;=====;;=====================",
"##########################@@@@@##====###============;;;=========",
"@@@@@@@@@@#########@@@@@###oooooooooo==;;==========;============",
"##@@@@@#####@@@@@#######oooooooooooooooo#;=====;================",
"@@@@@###@@@@@@@@@@#@@@@ooooooooooooooooooO;;====;;;=============",
"OOO%%%%%OOOOOOOOOOOOO%ooooooo*oooooooooooo%%%OOOOOOOOOOOOO%%OOOO",
"---------%%%%%%%%%%%%oooooooo*oooooooo*ooo----------------------",
"----------%%%%%%%%%%ooo*ooooo*oooooo**oo*oo---------------------",
"----------%%%%%%%%%%oo**oooo**ooooooo*oo*ooo--------------------",
"---------OOOOO%%%%%%oo*ooooooo*ooooooo*oo*oo--------------------",
"OOO%OOOOO%%%%OOOOOOooooooooooooooooooo*oo*ooOOOO%OOOOOOOOOOOOOOO",
"=;;=======;;;===;;oooo*oooo*oooo*oooooooooooo###################",
"=====;;;;==;===;==ooo*ooooo*ooo**ooooo*oo>oooo##################",
"===;========;;====oooooooo>**oo*oooooo*oo>ooo#o#################",
"==================oooo*o*o>o*oo*o*o*oooo*>o*oo##################",
"==================oo*o*oo>**>o*>oo***oo>*o>*oo@@@@@####@@@##@@@@",
"==================o*o>**o>*>>*>>oo**>o*>*o>**o##@@@@@@@@##@@@@##",
"%%OOOOOOOO%%%%%OOOo*o>o**>*>o*>ooo*>>o>**o>*ooOOOOOOOOOOOOOOO%%%",
"----------------->*>*>oo***>**>*o*>>o*>*o**>o>%%%%%%%%%%--------",
"-----------------<>***>>>*>*>**>*>*>o>*>***>*<%%%%%%%%%---------",
"---------------->-<<*>*><*<**>*>*>**>>*>>*o*>%<%%%%%%%%---------",
"----------------<->*><*>*>*>><**>*>>**>>*<**<%%%%%%%%OOO--------",
"OOOOOOOOOOOOOOOOO%>>><><*><>><><><*>><**>><*<>OOOOOOO%%OOOOOOOOO",
"=################<#><>#<>><>X>>>><XX<>#>><><%O<===;;============",
"###=##############<####:X>X<><<>>><>XX<:<<>##<=;===============#",
"===##################::XX&&&XXXXXXXX&&&XX::##===;;;=============",
"####################1&&&XX&&&XXXXXX&&&XX&&&1#======;========#=##",
"@@###@@@@@@@########21&&&:X&&&&&&&&&&X:&&&12@==================#",
"#@@@@##@@###@@@@@@@@21,&&:&&&&&&&&&&&&:&&,12OO============######",
"OOOOOOOOO%%OOOOO%%OO221,:X&&&&&&&&&&&&X:,122%%OOOOOOOOOO%%%%%OOO",
"---%%%%%%%%%%%%%%%%%221,XX&&&&&&&&&&&&XX,122--------------------",
"----%%%%%%%%%%%%%%%%221,X&&&&&&&&&&&&&&X,122--------------------",
"----%%%%%%%%%%%%%%%%2211X&&&&&&&&&&&&&&X1122--------------------",
"---%%%OOOO%%%%%%%%%%2221X&&&&&&&&&&&&&&X1222--------------------",
"OOOOOO%%%OOOOOOO%%%%2221X&&&&&&&&&&&&&&X1222%%%%%%%%%%OOOOOOOOOO",
"#===================2221X&&&&&&&&&&&&&&X1222####################",
"====================2221X&&&&&&&&&&&&&&X1222################====",
"====================2221,&&&&&&&&&&&&&&,1222##################==",
"==##================2221+1&&&&&&&&&&&&1+1222#################=#=",
"##===#=============11221.+122222222222+.12211#######@@@@@@@#@@@@",
"=##================221,....+++++++++++...,122@@@##@@@@@@##@@@@##",
"%%%%OOOOOOOOOOO%%%O222,O+..............+O,222%OOOOOOOOOOOOOOO%%%",
"--------------------22%%++++........++++%O22--------------------",
"-----------------------%+$$+$++++.+$+$$+%%----------------------",
"-----------------------%.$$$$++..+$$$$$.%%----------------------",
"----------------------%%..$$$$+..+$$$$..%%O---------------------",
"OOO%%%%OOOOOOOOO%%%%%OOO%.$$$$+..+$$$$.%%%%OO%%%OOOOOOO%%%%%%%%O",
"########################.$$$$$$..$$$$$$.#####OO;;=====;;;=======",
"########################$$$$$$$..$$$$$$$######===;;;============",
"########################.$$$$+$..$+$$$$.######=;=====;;=========",
"########################.$+$$+$..$+$$+$.######==================",
"#@@@@@##@#@@@@@@@@@#@@@@$$+++$$..$$+++$$##@@@@==================",
"@@@@@@@@#@####@@@@#@@@@@$.+..+$..$+..+.$@@@@#OO=================",
"OO%%%OOOOO%%%%%%OOOOOOOO$$+++$$..$$+++$$O%O%%%%OOOO%%%%%%%%%OOOO",
"------%%%%%%%%OOO-------$$$$$$$..$$$$$$$---OO%%%%%%%%%%%%%%%%%%-",
"-------%%%%%%%%%--------$$$$$$$..$$$$$$$----%%%%%%%%%%%%%%%%%%--",
"-------%%%%%%%%%--------.$$$$$+..+$$$$$.----%%%%%%%%%%%%%%%%%%--",
"------OO%%%%%%OOO------...$$$+....+$$$...--OOO%%%%%%%%%%%%%%%OO-",
"OOOOOOO%%OOO%%%%%OO%%%OO ..++. .. .+++. %OO%%OOOO%%%%%%%%OOOO%%O",
"=========;;========;;OO o     o  o     o #######################",
"====;;;;========;===;;=@ ooooo ## ooooo ########################",
"=================;;;=== oo***oo  oo***oo ################@@@@###",
"========================       ;@       ##############@@@@@@@@##",
"=================================;;@@@###@@@##################@@"
};
