/* XPM */
static char *ded5a76a604740e4ce90c37ced22ded7oOfjjOWTycHuBefH[] = {
/* columns rows colors chars-per-pixel */
"64 64 14 1 ",
"  c #1E0703",
". c #2A0C07",
"X c #310F09",
"o c #391812",
"O c #5F3028",
"+ c #663931",
"@ c #764138",
"# c #8D561B",
"$ c #B36E23",
"% c #DD8A2E",
"& c #EC9F4B",
"* c #DDCDCD",
"= c #F0DFDF",
"- c #F7EAEA",
/* pixels */
"XXXXXXXXXXXXXXXXXXXXXXXXXXXXXXX@OO@@OOOOO@@OOOOOOOOOOOOOOOOOOOOO",
"XXXXXXXXXXXXXXXXXXXXXXXXXX.....XXOOOOXXXOOOOOOOOOOOO@@@OOOOOOOOO",
"..........XXXXXXXXX.....XXXXXXX....XOOO@@OOOOOOOOOO@OOOOOOOOOOOO",
"XX.....XXXXX.....XXXXXXX.......XXXX..XXOX@OOOOO@OOOOOOOOOOOOOOOO",
".....XXX..........X.......XXXXX......XX.  @@OOOO@@@OOOOOOOOOOOOO",
"   ooooo             ooo     o    o     ooooo             oo    ",
"+++++++++oooooooooooooooooooo  +++++++++++++++++++++++++++++++++",
"++++++++++oooooooooooooooooooo++++++++++++++++++++++++++++++++++",
"++++++++++oooooooooooooooooooo++++++++++++++++++++++++++++++++++",
"+++++++++     ooooooooooooooooo+++++++++++++++++++++++++++++++++",
"   o     oooo           oo      ooo             o               ",
"O@@OOOOOOO@@@OOO@@@OOOOOo XXXXXXXXXXXXXXXXXXXXXXXXXXXXXXXXXXXXXX",
"OOOOO@@@@OO@OOO@OOOOOOOOOXXXXXXXXXXXXXXXXXXXXXXXXXXXXXXXXXXXXXXX",
"OOO@OOOOOOOO@@OOOOOOOOOOOXXXXXXXXXXXXXXXXXXXXXXXXXXXXXXXXXXXXXXX",
"OOOOOOOOOOOOOOOOOOOOOOOOOXXXXXXXXXXXXXXXXXXXXXXXXXXXXXXXXXXXXXXX",
"OOOOOOOOOOOOOOOOOOOOOOOOO.....XX...XXXXXXXXX.......XXXX...XX....",
"OOOOOOOOOOOOOOOOOOOOOOOO  X.....X............XXX........XX....XX",
"oo        ooooo         oooooooo   ooo                       ooo",
"++++++++++++++++++++++++++++++++++     ooooooooooooooooo++++++++",
"+++++++++++++++++++++++++++++++++++oooooooooooooooooooo+++++++++",
"+++++++++++++++++++++++++++++++++++oooooooooooooooooooo+++++++++",
"+++++++++++++++++++++++++++++%%%%%%%%%%%%%%%%%%%%%ooo   ++++++++",
"                 o    ooo    $$$$$$$$$$$$$$$$$$$$%   oo         ",
"OXXXXXXXXXXXXXXXX---------------================#$@@OOOOOOOOOOOO",
"XXXOXXXXXXXXXXXXX=================**************##OOOOOOOOOOOOOX",
"OOOXXXXXXXXXXXX&&&&&&&&&&&&&&&&&&&&&&&&&&&&&&&&&&#@OOOOOOOOOOOOO",
"XXXXXXXXXXXXXXX&&&&&&&&&&&&&&&&&&&&&&&&&&&&&&&&&&#O@OOOOOOOOXOXX",
"..XXX.......XXX&&&&&&&&&&&&&&&&%%%%%%%%%%%%%%%%%%#OOOOOOOOOOOOOX",
"X....XX..XXX...&&&&&&&&&&%%%%%%%%%%%%%%%%%%%%%%%%#OOOOOOOOXXXXXX",
"         oo    &&&&&%%%%%%%%%%%%%%%%%%%%%%%%%%%%%#      ooooo   ",
"+++oooooooooooo&&&&%%%%%%%%%%%%%%%%%%%%%%%%%%%%%%#++++++++++++++",
"++++ooooooooooo&&&&%%%%%%%%%%%%%%%%%%%%%%%%%%%%%%#++++++++++++++",
"++++ooooooooooo&&&%%%%%%%%%%%%%%%%%%%%%%%%%%%%%%%#++++++++++++++",
"+++ooo    ooooo&&&%%%%%%%%%%%%%%%%%%%%%%%%%%%%%%%#++++++++++++++",
"      ooo      &&&%%%%%%%%%%%%%%%%%%%%%%%%%%%%%%%#oooo          ",
"XOOOOOOOOOOOOOO&&&%%%%%%%%%%%%%%%%%%%%%%%%%%%%%%%#XXXXXXXXXXXXXX",
"OOOOOOOOOOOOOOO&&%%%%%%%%%%%%%%%%%%%%%%%%%%%%%%%%#XXXXXXXXXXOOOO",
"OOOOOOOOOOOOOOO&&%%%%%%%%%%%%%%%%%%%%%%%%%%%%%%%%#XXXXXXXXXXXXOO",
"OOXXOOOOOOOOOOO&&%%%%%%%%%%%%%%%%%%%%%%%%%%%%%%%%#XXXXXXXXXXXOXO",
"XXOOOXOOOOOOOOO&&%%%%%%%%%%%%%%%%%%%%%%%%%%%%%%%%#XX.......X....",
"OXXOOOOOOOOOOOO&&%%%%%%%%%%%%%%%%%%%%%%%%%%%%%%%%#......XX....XX",
"oooo           &&%%%%%%%%%%%%%%%%%%%%%%%%%%%%%%%%#           ooo",
"+++++++++++++++&&%%%%%%%%%%%%%%%%%%%%%%%%%%%%%%%%$++++++++++++++",
"+++++++++++++++&%%%%%%%%%%%%%%%%%%%%%%%%%%%%%%%%%$++++++++++++++",
"+++++++++++++++%%%%%%%%%%%%%%%%%%%%%%%%%%%%%%%%%%+++++++++++++++",
"++++++++++++++++++++++oo   ooooooooooooooo +++++++++++++++++++++",
"   oooo         ooooo   oo    ooooooooooooo  ooo       oooooooo ",
"XXXXXXXXXXXXXXXXXXXXXXXXXXXXXXXXXXXXXXXXXXXXX  @@OOOOO@@@OOOOOOO",
"XXXXXXXXXXXXXXXXXXXXXXXXXXXXXXXXXXXXXXXXXXXXXXOOO@@@OOOOOOOOOOOO",
"XXXXXXXXXXXXXXXXXXXXXXXXXXXXXXXXXXXXXXXXXXXXXXO@OOOOO@@OOOOOOOOO",
"XXXXXXXXXXXXXXXXXXXXXXXXXXXXXXXXXXXXXXXXXXXXXXOOOOOOOOOOOOOOOOOO",
"X.....XX.X.........X........XX.XX.......XX....OOOOOOOOOOOOOOOOOO",
"........X.XXXX....X.......XXX......XXXX.....X  OOOOOOOOOOOOOOOOO",
"  ooo     oooooo            ooooooo      o oooo    ooooooooo    ",
"++++++oooooooo   ++++++++++++++++++++++++++  oooooooooooooooooo+",
"+++++++ooooooooo++++++++++++++++++++++++++++oooooooooooooooooo++",
"+++++++ooooooooo++++++++++++++++++++++++++++oooooooooooooooooo++",
"++++++  oooooo   ++++++++++++++++++++++++++   ooooooooooooooo  +",
"       oo   ooooo  ooo            ooooooo  oo    oooooooo    oo ",
"OOOOOOOOO@@OOOOOOOO@@  .XXXXXXXXXXXXXXXXXXXXXXXXXXXXXXXXXXXXXXXX",
"OOOO@@@@OOOOOOOO@OOO@@O..X..XXXXXXXXXXXXXXXXXXXXXXXXXXXXXXXXXXXX",
"OOOOOOOOOOOOOOOOO@@@OOOO@.XXXX..XXXXXXXXXXXXXXXXXXXXXXXXX....XXX",
"OOOOOOOOOOOOOOOOOOOOOOOOXO@@X.O@..XX....XXXXXXXXXXXXXX........XX",
"OOOOOOOOOOOOOOOOOOOOOOOOOOOOOOOOO@@...XXX...XXXXXXXXXXXXXXXXXX.."
};
