/* XPM */
static char *_bcfa665d77445f5dc46e3837c8291d9E3F7xFdjtnlGjTNo[] = {
/* columns rows colors chars-per-pixel */
"64 64 12 1 ",
"  c #261F2A",
". c #433A48",
"X c #665D6B",
"o c #14915E",
"O c #847E87",
"+ c #ADA9AF",
"@ c #CAB083",
"# c #D9C094",
"$ c #DDC69F",
"% c #E8D0A7",
"& c #D4D1D5",
"* c white",
/* pixels */
"#######################@@@@@@@@@@@@@@@@@@#######################",
"######################@OOOOOOOOOOOOOOOOOO@######################",
"%%%%%%%%%%%%%%%%%%%%%%$Ooo****ooo*o**o*oO$%%%%%%%%%%%%%%%%%%%%%%",
"%%%%%%%%%%%%%%%%%%%%%%$Ooo*oo*oo*o**o*ooO$%%%%%%%%%%%%%%%%%%%%%%",
"%%%%%%%%%%%%%%%%%%%%%%$Ooo*o**o*o**o*oooO$%%%%%%%%%%%%%%%%%%%%%%",
"%%%%%%%%%%%%%%%%%%%%%%$Ooo*oo*oo*o**o*ooO$%%%%%%%%%%%%%%%%%%%%%%",
"%%%%%%%%%%%%%$$$$$$$$$OOoo****ooo*o**o*oOO$$$$$$$$$%%%%%%%%%%%%%",
"%%%%%%%%%%%$@OOOOOOOOOOOOOOOOOOOOOOOOOOOOOOOOOOOOOO@$%%%%%%%%%%%",
"%%%%%%%%%##@OOOOOOOOOOOOOOOOOOOOOOOOOOOOOOOOOOOOOOOO@##%%%%%%%%%",
"%%%%%%%%%##@OOOOOOOOOOO..................OOOOOOOOOOO@##%%%%%%%%%",
"%%%%%%%%%%$OOOO..................................OOOO$%%%%%%%%%%",
"%%%%%%%%%#@OOO.........XXXXXXXXXXXXXXXXXX.........OOO@#%%%%%%%%%",
"%%%%%%%%%#@OOO..XXXXXXXXXXXXXXXXXXXXXXXXXXXXXXXX..OOO@#%%%%%%%%%",
"%%%%%%%%%%$OOO..XXXXXXXXXXXXXXXXXXXXXXXXXXXXXXXX..OOO$%%%%%%%%%%",
"%%%%%%%%%%$OOO.XXXXXXXXXXXXXXXXXXXXXXXXXXXXXXXXXX.OOO$%%%%%%%%%%",
"%%%%%%%%%%$OOO.XXXXXXXXXXXXXXXXXXXXXXXXXXXXXXXXXX.OOO$%%%%%%%%%%",
"%%%%%%%%%%$OOO.XXXXXXXXXXXXXXXXXXXXXXXXXXXXXXXXXX.OOO$%%%%%%%%%%",
"%%%%%%%%%%$OOO.XXXXXXXXXXX............XXXXXXXXXXX.OOO$%%%%%%%%%%",
"####%%%%%%$OOO.XXXXXXXXXX.OOOOOOOOOOOO.XXXXXXXXXX.OOO$%%%%%%####",
"#######%%%$OOO.XXXXXXXXXX.O          O.XXXXXXXXXX.OOO$%%%#######",
"%%%####%%%$OOO.XXXXXXXXXX.O  &&      O.XXXXXXXXXX.OOO$%%%####%%%",
"#%%%%%%%%%$OOO.XXXXXXXXX.OO &        OO.XXXXXXXXX.OOO$%%%%%%%%%#",
"%%%####%%%$OOO.XXXXXXXXX.O &          O.XXXXXXXXX.OOO$%%%####%%%",
"#######%%%$OOO.XXXXXXXXX.O &          O.XXXXXXXXX.OOO$%%%#######",
"####%%%%%%$OOO.XXXXXXXXX.O &          O.XXXXXXXXX.OOO$%%%%%%####",
"%%%%%%%%%%$OOO.XXXXXXXXX.O &          O.XXXXXXXXX.OOO$%%%%%%%%%%",
"%%%%%%%%%%$OOO.XXXXXXXXX.O &          O.XXXXXXXXX.OOO$%%%%%%%%%%",
"%%%%%%%%%%$OOO.XXXXXXXXX.O &          O.XXXXXXXXX.OOO$%%%%%%%%%%",
"%%%%%%%%%%$OOO.XXXXXXXXX.O            O.XXXXXXXXX.OOO$%%%%%%%%%%",
"%%%%%%%%%%$OOO.XXXXXXXXX.O     & &&&& O.XXXXXXXXX.OOO$%%%%%%%%%%",
"%%%%%%%%%#@OOO.XXXXXXXXX.O            O.XXXXXXXXX.OOO@#%%%%%%%%%",
"%%%%%%%%%#@OOO.XXXXXXXXX.OOOOOOOOOOOOOO.XXXXXXXXX.OOO@#%%%%%%%%%",
"%%%%%%%%%%$OOO.XXXXXXXXX................XXXXXXXXX.OOO$%%%%%%%%%%",
"%%%%%%%%%#@OOO.XXXXXXXXXXXXXXXXXXXXXXXXXXXXXXXXXX.OOO@#%%%%%%%%%",
"%%%%%%%%%#@OOO.XXXXXXXXXXXXXXXXXXXXXXXXXXXXXXXXXX.OOO@#%%%%%%%%%",
"%%%%%%%%%%$OOO.XXXXXXXXXXXXXXXXXXXXXXXXXXXXXXXXXX.OOO$%%%%%%%%%%",
"%%%%%%%%%%$OOO.XXXXXXXXXXXXXXXXXXXXXXXXXXXXXXXXXX.OOO$%%%%%%%%%%",
"%%%%%%%%%%$OOO.XXXXXXXXXXXXXXXXXXXXXXXXXXXXXXXXXX.OOO$%%%%%%%%%%",
"%%%%%%%%%%$OOO.XXXXXXXXXXXXXXXXXXXXXXXXXXXXXXXXXX.OOO$%%%%%%%%%%",
"%%%%%%%%%%$OOO+.XXXXXXXXXXXXXXXXXXXXXXXXXXXXXXXX.+OOO$%%%%%%%%%%",
"%%%%%%%%%%$OOO+.XXXXXXXXXXXXXXXXXXXXXXXXXXXXXXXX.+OOO$%%%%%%%%%%",
"####%%%%%%$OO+O+OOOOOOOOOOOOOOOOOOOOOOOOOOOOOOOO+O+OO$%%%%%%####",
"#######%%%$OOO+....+OO++++OOOOOOOOOOOOOOOOOOO....+OOO$%%%#######",
"%%%####%%%$OOO+...++++++++++++++++++++OOOO++++...+OOO$%%%####%%%",
"#%%%%%%%%%$OOO..XX............................XX..OOO$%%%%%%%%%#",
"%%%####%%%$OOO.XXXXXXXXXXXXXXXXXXXXXXXXXXXXXXXXXX.OOO$%%%####%%%",
"#######%%%$OOO.XXXXXXXXXXXXXXXXXXXXXXXXXXXXXXXXXX.OOO$%%%#######",
"####%%%%%%$OOO.XXXXXXXXXXXXXXXXXXXXXXXXXXXXXXXXXX.OOO$%%%%%%####",
"%%%%%%%%%%$OOO.XXXXXXXXXXXXXXXXXXXXXXXXXXXXXXXXXX.OOO$%%%%%%%%%%",
"%%%%%%%%%%$OOO.XXXXXXXXXXXXXXXXXXXXXXXXXXXXXXXXXX.OOO$%%%%%%%%%%",
"%%%%%%%%%%$OOO.XXXXXXXXXXXXXXXXXXXXXXXXXXXXXXXXXX.OOO$%%%%%%%%%%",
"%%%%%%%%%%$OOO.XXXXXXXXXXXXXXXXXXXXXXXXXXXXXXXXXX.OOO$%%%%%%%%%%",
"%%%%%%%%%%$OOO.XXXXXXXXXXXXXXXXXXXXXXXXXXXXXXXXXX.OOO$%%%%%%%%%%",
"%%%%%%%%%#@OOO.XXXXXXXXXXXXXXXXXXXXXXXXXXXXXXXXXX.OOO@#%%%%%%%%%",
"%%%%%%%%%#@OOO.XXXXXXXXXXXXXXXXXXXXXXXXXXXXXXXXXX.OOO@#%%%%%%%%%",
"%%%%%%%%%%$OOO.XXXXXXXXXXXXXXXXXXXXXXXXXXXXXXXXXX.OOO$%%%%%%%%%%",
"%%%%%%%%%#@OOO.XXXXXXXXXXXXXXXXXXXXXXXXXXXXXXXXXX.OOO@#%%%%%%%%%",
"%%%%%%%%%#@OOO.XXXXXXXXXXXXXXXXXXXXXXXXXXXXXXXXXX.OOO@#%%%%%%%%%",
"%%%%%%%%%%$OOO.XXXXXXXXXXXXXXXXXXXXXXXXXXXXXXXXXX.OOO$%%%%%%%%%%",
"%%%%%%%%%%$OOO.XXXXXXXXXXXXXXXXXXXXXXXXXXXXXXXXXX.OOO$%%%%%%%%%%",
"%%%%%%%%%%$OOO.XXXXXXXXXXXXXXXXXXXXXXXXXXXXXXXXXX.OOO$%%%%%%%%%%",
"%%%%%%%%%%$OOO.XXXXXXXXXXXXXXXXXXXXXXXXXXXXXXXXXX.OOO$%%%%%%%%%%",
"##########@OOO.XXXXXXXXXXXXXXXXXXXXXXXXXXXXXXXXXX.OOO@##########",
"##########@OOO.XXXXXXXXXXXXXXXXXXXXXXXXXXXXXXXXXX.OOO@##########"
};
