/* XPM */
static char *a954fdb19a404713f0961df09376bb0dgvXTNOhVAnxAgqpO[] = {
/* columns rows colors chars-per-pixel */
"64 64 25 1 ",
"  c black",
". c #080605",
"X c #07060B",
"o c #0B0B0B",
"O c #1E0703",
"+ c #17110F",
"@ c #1B1512",
"# c #2A0C07",
"$ c #310F09",
"% c #261C18",
"& c #391812",
"* c #1C1A2E",
"= c #272727",
"- c #393939",
"; c #5F3028",
": c #663931",
"> c #634F1F",
", c #764138",
"< c #2E385B",
"1 c gray34",
"2 c gray39",
"3 c #D1986E",
"4 c #A5A5A5",
"5 c #E8B88A",
"6 c #F0D2B5",
/* pixels */
"$$$$$$$$$$$$$$$$$$$$$$$$$$$$$$$,;;,,;;;;;,,;;;;;;;;;;;;;;;;;;;;;",
"$$$$$$$$$$$$$$$$$$$$$$$$$$#####$$;;;;$$$;;;;;;;;;;;;,,,;;;;;;;;;",
"##########$$$$$$$$$#####$$$ ==ooo    ;;,,;;;;;;;;;;,;;;;;;;;;;;;",
"$$#####$$$$$#####$$$$$$$oo    = o ==oooo$,;;;;;,;;;;;;;;;;;;;;;;",
"#####$$$##########$####oo oooo   =ooo  ooO,,;;;;,,,;;;;;;;;;;;;;",
"OOO&&&&&OOOOOOOOOOOOO&o   o  oo  oo  o  oo&&&OOOOOOOOOOOOO&&OOOO",
":::::::::&&&&&&&&&&&&o= oo oooo oooo     o::::::::::::::::::::::",
"::::::::::&&&&&&&&&&oo= o oo= oooo ooo oooo:::::::::::::::::::::",
"::::::::::&&&&&&&&&&o=ooo o= o=oo=o ooo=o oo::::::::::::::::::::",
":::::::::OOOOO&&&&&&ooo=2oo= 2oooo=  =o2o =o::::::::::::::::::::",
"OOO&OOOOO&&&&OOOOOOoo =2=o1=2o=oo1=  =2o=o=oOOOO&OOOOOOOOOOOOOOO",
";,,;;;;;;;,,,;;;,,oo  =2=o=o2o2oo=2o o2 =oo=o$$$$$$$$$$$$$$$$$$$",
";;;;;,,,,;;,;;;,;o;o =2oo2oo2=25=62=5o21 =ooo$$$$$$$$$$$$$$$$$$$",
";;;,;;;;;;;;,,;;;;oo= o2=266=26626626252 =1ooo$$$$$$$$$$$$$$$$$$",
";;;;;;;;;;;;;;;;;;ooo=oo266666666666662=o2=o2o$$$$$$$$$$$$$$$$$$",
";;;;;;;;;;;;;;;;;;oo= oo26@@@@6666@@@@65=2o2o=#####$$$$###$$####",
";;;;;;;;;;;;;;;;;;=oo2 o666>>666666>>6662o=2=o$$########$$####$$",
"&&OOOOOOOO&&&&&OOO=o=2 o66666666666666625ooo=2OOOOOOOOOOOOOOO&&&",
":::::::::::::::::22=2=o666666666666666666=2=o4&&&&&&&&&&::::::::",
":::::::::::::::::4=2=2=26666665555666666=2=o=4&&&&&&&&&:::::::::",
"::::::::::::::::=:2=2:2=2666666666666662=22=2&&&&&&&&&&:::::::::",
"::::::::::::::::4:242:42=oo<o566665o<oo2=&=42&&&&&&&&OOO::::::::",
"OOOOOOOOOOOOOOOOO&2O4O424OoX**5555**X&4&24&242OOOOOOO&&OOOOOOOOO",
";$$$$$$$$$$$$$$$$4$244$4$oXXXX*<**XXXX$44$24&O4;;;,,;;;;;;;;;;;;",
"$$$;$$$$$$$$$$$$$$4$$$$<X*<XXXXX<XXXX<XX<$$$$4;,;;;;;;;;;;;;;;;$",
";;;$$$$$$$$$$$$$$$$$$<<XX**<XXXX<XXX<**XX<*$$;;;,,,;;;;;;;;;;;;;",
"$$$$$$$$$$$$$$$$$$$$5***XX**<<X<XX<<***X<**5$;;;;;;,;;;;;;;;$;$$",
"##$$$#######$$$$$$$$65***<X****<******X<**56#;;;;;;;;;;;;;;;;;;$",
"$####$$##$$$########653**<*****<******X<*356OO;;;;;;;;;;;;$$$$$$",
"OOOOOOOOO&&OOOOO&&OO6653<*******<******<3566&&OOOOOOOOOO&&&&&OOO",
":::&&&&&&&&&&&&&&&&&6653****************3566::::::::::::::::::::",
"::::&&&&&&&&&&&&&&&&6653****************3566::::::::::::::::::::",
"::::&&&&&&&&&&&&&&&&6655****************5566::::::::::::::::::::",
":::&&&OOOO&&&&&&&&&&6665****************5666::::::::::::::::::::",
"OOOOOO&&&OOOOOOO&&&&6665****************5666&&&&&&&&&&OOOOOOOOOO",
"$;;;;;;;;;;;;;;;;;;;6665XX************XX5666$$$$$$$$$$$$$$$$$$$$",
";;;;;;;;;;;;;;;;;;;;6665XXXXXXXXXXXXXXXX5666$$$$$$$$$$$$$$$$;;;;",
";;;;;;;;;;;;;;;;;;;;66653*XXXXXXXXXXXX*35666$$$$$$$$$$$$$$$$$$;;",
";;$$;;;;;;;;;;;;;;;;666535************535666$$$$$$$$$$$$$$$$$;$;",
"$$;;;$;;;;;;;;;;;;;55665.35666663666663.56655$$$$$$$#######$####",
";$$;;;;;;;;;;;;;;;;6653..%%5555555555%%..3566###$$######$$####$$",
"&&&&OOOOOOOOOOO&&&O6663O+..%%%%%%%%%%..+O3666&OOOOOOOOOOOOOOO&&&",
"::::::::::::::::::::66&&+++..........+++&O66::::::::::::::::::::",
":::::::::::::::::::::::&+%%+%++++.+%+%%+&&::::::::::::::::::::::",
":::::::::::::::::::::::&.%%%%++..+%%%%%.&&::::::::::::::::::::::",
"::::::::::::::::::::::&&..%%%%+..+%%%%..&&O:::::::::::::::::::::",
"OOO&&&&OOOOOOOOO&&&&&OOO&.%%%%+..+%%%%.&&&&OO&&&OOOOOOO&&&&&&&&O",
"$$$$$$$$$$$$$$$$$$$$$$$$.%%%%%%..%%%%%%.$$$$$OO,,;;;;;,,,;;;;;;;",
"$$$$$$$$$$$$$$$$$$$$$$$$%%%%%%%..%%%%%%%$$$$$$;;;,,,;;;;;;;;;;;;",
"$$$$$$$$$$$$$$$$$$$$$$$$.%%%%.%..%.%%%%.$$$$$$;,;;;;;,,;;;;;;;;;",
"$$$$$$$$$$$$$$$$$$$$$$$$.%+%%.%..%.%%+%.$$$$$$;;;;;;;;;;;;;;;;;;",
"$#####$$#$#########$####%..+%%%..%%%+..%$$####;;;;;;;;;;;;;;;;;;",
"########$#$$$$####$#####%+....%..%....+%####$OO;;;;;;;;;;;;;;;;;",
"OO&&&OOOOO&&&&&&OOOOOOOO%%...+%..%+...%%O&O&&&&OOOO&&&&&&&&&OOOO",
"::::::&&&&&&&&OOO:::::::%%++%%%..%%%++%%:::OO&&&&&&&&&&&&&&&&&&:",
":::::::&&&&&&&&&::::::::%%%%%%%..%%%%%%%::::&&&&&&&&&&&&&&&&&&::",
":::::::&&&&&&&&&::::::::.%%%%%+..+%%%%%.::::&&&&&&&&&&&&&&&&&&::",
"::::::OO&&&&&&OOO::::::...%%%+....+%%%...::OOO&&&&&&&&&&&&&&&OO:",
"OOOOOOO&&OOO&&&&&OO&&&OO ..++. .. .+++. &OO&&OOOO&&&&&&&&OOOO&&O",
";;;;;;;;;,,;;;;;;;;,,OO o     o  o     o $$$$$$$$$$$$$$$$$$$$$$$",
";;;;,,,,;;;;;;;;,;;;,,;# ooo-- $$ ooo-- $$$$$$$$$$$$$$$$$$$$$$$$",
";;;;;;;;;;;;;;;;;,,,;;; o    11  o    11 $$$$$$$$$$$$$$$$####$$$",
";;;;;;;;;;;;;;;;;;;;;;;; ----  ,# ----  $$$$$$$$$$$$$$########$$",
";;;;;;;;;;;;;;;;;;;;;;;;;;;;;;;;;,,###$$$###$$$$$$$$$$$$$$$$$$##"
};
