/* XPM */
static char *_f066506412d4160806f22626301aa32ESppKe6Bt7ZYclaz[] = {
/* columns rows colors chars-per-pixel */
"64 64 25 1 ",
"  c black",
". c #080605",
"X c #07060B",
"o c #0B0B0B",
"O c #1E0703",
"+ c #17110F",
"@ c #1B1512",
"# c #2A0C07",
"$ c #310F09",
"% c #261C18",
"& c #391812",
"* c #1C1A2E",
"= c #272727",
"- c #393939",
"; c #5F3028",
": c #663931",
"> c #634F1F",
", c #764138",
"< c #2E385B",
"1 c gray34",
"2 c gray39",
"3 c #D1986E",
"4 c #A5A5A5",
"5 c #E8B88A",
"6 c #F0D2B5",
/* pixels */
"$$$$$$$$$$$$$$$$$$$$$$$$$$$$$$$,;;,,;;;;;,,;;;;;;;;;;;;;;;;;;;;;",
"$$$$$$$$$$$$$$$$$$$$$$$$$$#####$$;;;;$$$;;;;;;;;;;;;,,,;;;;;;;;;",
"##########$$$$$$$$$#####$$$    ooo== ;;,,;;;;;;;;;;,;;;;;;;;;;;;",
"$$#####$$$$$#####$$$$$$$oooo== o =    oo$,;;;;;,;;;;;;;;;;;;;;;;",
"#####$$$##########$####oo  ooo=   oooo ooO,,;;;;,,,;;;;;;;;;;;;;",
"OOO&&&&&OOOOOOOOOOOOO&oo  o  oo  oo  o   o&&&OOOOOOOOOOOOO&&OOOO",
":::::::::&&&&&&&&&&&&&o     oooo oooo oo =o:::::::::::::::::::::",
"::::::::::&&&&&&&&&&&oooo ooo oooo =oo o =o:::::::::::::::::::::",
"::::::::::&&&&&&&&&&oo o=ooo o=oo=o =o ooo=:::::::::::::::::::::",
":::::::::OOOOO&&&&&&o= o2o=  =oooo2 =oo2=ooo::::::::::::::::::::",
"OOO&OOOOO&&&&OOOOOOOo2o2o=2  =1oo=o==1o=2= ooOOO&OOOOOOOOOOOOOOO",
";,,;;;;;;;,,,;;;,,,o2oo2 =o o2=oo2o=o=o=2=  o$$$$$$$$$$$$$$$$$$$",
";;;;;,,,,;;,;;;,;;;o2o=2o2o5=25=o2=2oo2oo2= o$$$$$$$$$$$$$$$$$$$",
";;;,;;;;;;;;,,;;;;ooo1==252625625o2==o2=2o =o$$$$$$$$$$$$$$$$$$$",
";;;;;;;;;;;;;;;;;;o2o==5666666666652=oo2oo=oo$$$$$$$$$$$$$$$$$$$",
";;;;;;;;;;;;;;;;;;=o2o=@@@666@@@@662ooo2oo =#o#####$$$$###$$####",
";;;;;;;;;;;;;;;;;;o=2==>>6666>>66665=oooo 2oo=$$########$$####$$",
"&&OOOOOOOO&&&&&OOO2=oo=56666666666662=o=o 2=oOOOOOOOOOOOOOOOO&&&",
"::::::::::::::::::4o=2=66666666666665==ooo=2=&&&&&&&&&&&::::::::",
"::::::::::::::::::4=o=2=6655666666665=oo2=2=2=&&&&&&&&&:::::::::",
":::::::::::::::::::2=22=2666666666662=o=22&2=&&&&&&&&&&:::::::::",
":::::::::::::::::::24=:=2oo2*555522*22=224&24&&&&&&&&OOO::::::::",
"OOOOOOOOOOOOOOOOO&242O42&4O*<6655**X==2424&4&&OOOOOOO&&OOOOOOOOO",
";$$$$$$$$$$$$$$$$4$$42$44$*XX****XXXX**$4$44&O;;;;,,;;;;;;;;;;;;",
"$$$;$$$$$$$$$$$$$$4$$$$$**X*X<XXXXXX**XX$$$$$;;,;;;;;;;;;;;;;;;$",
";;;$$$$$$$$$$$$$$$$$$$$$$*X**<XXXX**XX3X$$$$$;;;,,,;;;;;;;;;;;;;",
"$$$$$$$$$$$$$$$$$$$$$$$$$5X*<******X3353X$$$$;;;;;;,;;;;;;;;$;$$",
"##$$$#######$$$$$$$$$$$$$65*<******X3565X####;;;;;;;;;;;;;;;;;;$",
"$####$$##$$$############66*<********5665X##$OO;;;;;;;;;;;;$$$$$$",
"OOOOOOOOO&&OOOOO&&OO&&&&65*********X5665&&&&&&OOOOOOOOOO&&&&&OOO",
":::&&&&&&&&&&&&&&&&&OOO&6***********6665::::::::::::::::::::::::",
"::::&&&&&&&&&&&&&&&&&&&&6***********6666::::::::::::::::::::::::",
"::::&&&&&&&&&&&&&&&&&&&&6***********6666::::::::::::::::::::::::",
":::&&&OOOO&&&&&&&&&&&&&&6X**********6666::::::::::::::::::::::::",
"OOOOOO&&&OOOOOOO&&&&&&&&6XXX********6666OO&&&&&&&&&&&&OOOOOOOOOO",
"$;;;;;;;;;;;;;;;;;;;;;;;65XXXXXX****6666$$$$$$$$$$$$$$$$$$$$$$$$",
";;;;;;;;;;;;;;;;;;;;;,,;65*XXXXXXXXX6655$$$$$$$$$$$$$$$$$$$$;;;;",
";;;;;;;;;;;;;;;;;;;;,,,6533***XXXXXXX566$$$$$$$$$$$$$$$$$$$$$$;;",
";;$$;;;;;;;;;;;;;;;;;;;533566********6655$$$$$$$$$$$$$$$$$$$$;$;",
"$$;;;$;;;;;;;;;;;;;;;;;33.%55366666656553##$$$$$$$$$#######$####",
";$$;;;;;;;;;;;;;;;;;;;;;;..%%55555553333$$$#####$$######$$####$$",
"&&&&OOOOOOOOOOO&&&OOOOOOO&...%%%%%%%%.OOO&&OO&OOOOOOOOOOOOOOO&&&",
"::::::::::::::::::::::&&&&+..........&&&&OO:::::::::::::::::::::",
":::::::::::::::::::::::&&&%+.+%++++%+&&&&&::::::::::::::::::::::",
":::::::::::::::::::::::&&&%%+.+%%++%%&&&&&::::::::::::::::::::::",
"::::::::::::::::::::::&&OO%%+.+%%+%%%&&&&&O:::::::::::::::::::::",
"OOO&&&&OOOOOOOOO&&&&&OOO&&%%%.+%%+%%%&&&&&&OO&&&OOOOOOO&&&&&&&&O",
"$$$$$$$$$$$$$$$$$$$$$$$$$$%%%.+%%%%%%$$$$$$$$OO,,;;;;;,,,;;;;;;;",
"$$$$$$$$$$$$$$$$$$$$$$$$$$%%%.%%%%%%%$$$$$$$$$;;;,,,;;;;;;;;;;;;",
"$$$$$$$$$$$$$$$$$$$$$$$$$$%%%.%%%%%%%$$$$$$$$$;,;;;;;,,;;;;;;;;;",
"$$$$$$$$$$$$$$$$$$$$$$$$$$+%%.+%%%%%%+$$$$$$$$;;;;;;;;;;;;;;;;;;",
"$#####$$#$#########$######.+%..++%%%++##$$####;;;;;;;;;;;;;;;;;;",
"########$#$$$$####$#######...+...%%%+%$#####$OO;;;;;;;;;;;;;;;;;",
"OO&&&OOOOO&&&&&&OOOOOOOOOO...+...+%%%%OOO&O&&&&OOOO&&&&&&&&&OOOO",
"::::::&&&&&&&&OOO:::::::::++%.+++%%%%+:::::OO&&&&&&&&&&&&&&&&&&:",
":::::::&&&&&&&&&:::::::::++%%.%%%+++%+::::::&&&&&&&&&&&&&&&&&&::",
":::::::&&&&&&&&&::::::::.%%+%.+.++%%+%::::::&&&&&&&&&&&&&&&&&&::",
"::::::OO&&&&&&OOO::::::...%%%....++%%%+::::OOO&&&&&&&&&&&&&&&OO:",
"OOOOOOO&&OOO&&&&&OO&&&OO .+++. .. .++++&&OO&&OOOO&&&&&&&&OOOO&&O",
";;;;;;;;;,,;;;;;;;;,,OO--oooo --ooo oo$$$$$$$$$$$$$$$$$$$$$$$$$$",
";;;;,,,,;;;;;;;;,;;;,,;-oo-oo -oo-oo  o$$$$$$$$$$$$$$$$$$$$$$$$$",
";;;;;;;;;;;;;;;;;,,,;;; ooo    oooo    $$$$$$$$$$$$$$$$$$####$$$",
";;;;;;;;;;;;;;;;;;;;;;;;    $#       ###$$$$$$$$$$$$$$########$$",
";;;;;;;;;;;;;;;;;;;;;;;;;;;;;;;;;,,###$$$###$$$$$$$$$$$$$$$$$$##"
};
