/* XPM */
static char *_6a449cca2a74e33f3a8e16c61c4e7d517gw9ghl0JULNAsK[] = {
/* columns rows colors chars-per-pixel */
"64 64 16 1 ",
"  c None",
". c black",
"X c #080605",
"o c #07060B",
"O c #0B0B0B",
"+ c #17110F",
"@ c #261C18",
"# c #1C1A2E",
"$ c gray15",
"% c #272727",
"& c #2E385B",
"* c gray39",
"= c #D1986E",
"- c #A5A5A5",
"; c #E8B88A",
": c #F0D2B5",
/* pixels */
"                                                                ",
"                                                                ",
"                           OOOOOOOOOO                           ",
"                        OOOOOOOOOOOOOOOO                        ",
"                       OOOOOOOOOOOOOOOOOO                       ",
"                      OOOOOOO%OOOOOOOOOOOO                      ",
"                     OOOOOOOO%OOOOOOOO%OOO                      ",
"                    OOO%OOOOO%OOOOOO%%OO%OO                     ",
"                    OO%%OOOO%%OOOOOOO%OO%OOO                    ",
"                    OO%OOOOOOO%OOOOOOO%OO%OO                    ",
"                   OOOOOOOOOOOOOOOOOOO%OO%OO                    ",
"                  OOOO%OOOO%OOOO%OOOOOOOOOOOO                   ",
"                  OOO%OOOOO%OOO%%OOOOO%OO*OOOO                  ",
"                  OOOOOOOO*%%OO%OOOOOO%OO*OOO O                 ",
"                  OOOO%O%O*O%OO%O%O%OOOO%*O%OO                  ",
"                  OO%O%OO*%%*O%*OO%%%OO*%O*%OO                  ",
"                  O%O*%%O*%**%**OO%%*O%*%O*%%O                  ",
"                  O%O*O%%*%*O%*OOO%**O*%%O*%OO                  ",
"                 *%*%*OO%%%*%%*%O%**O%*%O%%*O*                  ",
"                 -*%%%***%*%*%%*%*%*O*%*%%%*%-                  ",
"                * --%*%*-%-%%*%*%*%%**%**%O%* -                 ",
"                - *%*-%*%*%**-%%*%**%%**%-%%-                   ",
"                  ***-*-%*-**-*-*-%**-%%**-%-*                  ",
"                 - *-* -**-*o****-oo-* **-*-  -                 ",
"                  -    &o*o-*--***-*oo-&--*  -                  ",
"                     &&oo###oooooooo###oo&&                     ",
"                    ;###oo###oooooo###oo###;                    ",
"                    :;###&o##########o&###;:                    ",
"                    :;=##&############&##=;:                    ",
"                    ::;=&o############o&=;::                    ",
"                    ::;=oo############oo=;::                    ",
"                    ::;=o##############o=;::                    ",
"                    ::;;o##############o;;::                    ",
"                    :::;o##############o;:::                    ",
"                    :::;o##############o;:::                    ",
"                    :::;o##############o;:::                    ",
"                    :::;o##############o;:::                    ",
"                    :::;=##############=;:::                    ",
"                    :::;+;############;+;:::                    ",
"                   ;;::;X+;:::::::::::+X;::;;                   ",
"                   ::;=XXXX+++++++++++XXX=;::                   ",
"                   :::= +XXXXXXXXXXXXXX+ =:::                   ",
"                    ::  ++++XXXXXXXX++++  ::                    ",
"                        +@@+@++++X+@+@@+                        ",
"                        X@@@@++XX+@@@@@X                        ",
"                        XX@@@@+XX+@@@@XX                        ",
"                         X@@@@+XX+@@@@X                         ",
"                        X@@@@@@XX@@@@@@X                        ",
"                        @@@@@@@XX@@@@@@@                        ",
"                        X@@@@+@XX@+@@@@X                        ",
"                        X@+@@+@XX@+@@+@X                        ",
"                        @@+++@@XX@@+++@@                        ",
"                        @X+XX+@XX@+XX+X@                        ",
"                        @@+++@@XX@@+++@@                        ",
"                        @@@@@@@XX@@@@@@@                        ",
"                        @@@@@@@XX@@@@@@@                        ",
"                        X@@@@@+XX+@@@@@X                        ",
"                       XXX@@@+XXXX+@@@XXX                       ",
"                        .XX++X.XX.X+++X.                        ",
"                       .O.....O..O.....O.                       ",
"                        .OOOOO.  .OOOOO.                        ",
"                       .OO%%%OO..OO%%%OO.                       ",
"                        .......  .......                        ",
"                                                                "
};
