/* XPM */
static char *_a55dacf147b42a29d0d8e155ce6c3c8juEd5QQ4yO4GWjqn[] = {
/* columns rows colors chars-per-pixel */
"64 64 19 1 ",
"  c None",
". c black",
"X c #080605",
"o c #07060B",
"O c #0B0B0B",
"+ c #17110F",
"@ c #1B1512",
"# c #261C18",
"$ c #1C1A2E",
"% c #272727",
"& c #393939",
"* c #634F1F",
"= c #2E385B",
"- c gray34",
"; c gray39",
": c #D1986E",
"> c #A5A5A5",
", c #E8B88A",
"< c #F0D2B5",
/* pixels */
"                                                                ",
"                                                                ",
"                           .%%OOO....                           ",
"                        OO....%.O.%%OOOO                        ",
"                       OO.OOOO...%OOO..OO                       ",
"                      O...O..OO..OO..O..OO                      ",
"                     O%.OO.OOOO.OOOO.....O                      ",
"                    OO%.O.OO%.OOOO.OOO.OOOO                     ",
"                    O%OOO.O%.O%OO%O.OOO%O.OO                    ",
"                    OOO%;OO%.;OOOO%..%O;O.%O                    ",
"                   OO.%;%O-%;O%OO-%..%;O%O%O                    ",
"                  OO..%;%O%O;,;OO%;O.O;.%OO%O                   ",
"                 O O.%;OO;,O;,>,%,;%,O;-.%OOO                   ",
"                  OO%.O;%>%,%;<<><<;<>,;.%-OOO                  ",
"                  OOO%OO;,<<<<<<<<<,<<;%O;%O;O                  ",
"                  OO%.OO><@@@@<<<<@@@@<,%;O;O%                  ",
"                  %OO;.O%<<**<<<<<<**<<;;O%;%O                  ",
"                  %O%;.O,<<<<<<<<<<<<<<>,OOO%;                  ",
"                 ;;%;%O;;<<<<<<<<<<<<<><%%;%O>                  ",
"                 >%;%;%;%<<<<<,,,,<<<<<%%;%O%>                  ",
"                % ;%; ;%;,<<<<<<<<<<<<<;%;;%;                   ",
"                > ;>; >%;OO=O,,,,,,O=OO;% %>;                   ",
"                  ; > >;> Oo$$<<<<$$o > ;> ;>;                  ",
"                 > ;>> > Ooooo$=$$oooo >> ;>  >                 ",
"                  >    =o$=ooooo=oooo=oo=    >                  ",
"                     ==oo$$=oooo=ooo=$$oo=$                     ",
"                    ,$$$oo$$==o=oo==$$$o=$$,                    ",
"                    <,$$$=o$$$$=$$$$$$o=$$,<                    ",
"                    <,:$$=$$$$$=$$$$$$o=$:,<                    ",
"                    <<,:=$$$$$$$=$$$$$$=:,<<                    ",
"                    <<,:$$$$$$$$$$$$$$$$:,<<                    ",
"                    <<,:$$$$$$$$$$$$$$$$:,<<                    ",
"                    <<,,$$$$$$$$$$$$$$$$,,<<                    ",
"                    <<<,$$$$$$$$$$$$$$$$,<<<                    ",
"                    <<<,$$$$$$$$$$$$$$$$,<<<                    ",
"                    <<<,oo$$$$$$$$$$$$oo,<<<                    ",
"                    <<<,oooooooooooooooo,<<<                    ",
"                    <<<,:$oooooooooooo$:,<<<                    ",
"                    <<<,:,$$$$$$$$$$$$,:,<<<                    ",
"                   ,,<<,X:,<<<<<:<<<<<:X,<<,,                   ",
"                   <<,:XX##,,,,,,,,,,##XX:,<<                   ",
"                   <<<: +XX##########XX+ :<<<                   ",
"                    <<  +++XXXXXXXXXX+++  <<                    ",
"                        +##+#++++X+#+##+                        ",
"                        X####++XX+#####X                        ",
"                        XX####+XX+####XX                        ",
"                         X####+XX+####X                         ",
"                        X######XX######X                        ",
"                        #######XX#######                        ",
"                        X####X#XX#X####X                        ",
"                        X#+##X#XX#X##+#X                        ",
"                        #XX+###XX###+XX#                        ",
"                        #+XXXX#XX#XXXX+#                        ",
"                        ##XXX+#XX#+XXX##                        ",
"                        ##++###XX###++##                        ",
"                        #######XX#######                        ",
"                        X#####+XX+#####X                        ",
"                       XXX###+XXXX+###XXX                       ",
"                        .XX++X.XX.X+++X.                        ",
"                       .O.....O..O.....O.                       ",
"                        .OOO&&.  .OOO&&.                        ",
"                       .O....--..O....--.                       ",
"                        .&&&&..  .&&&&..                        ",
"                                                                "
};
