/* XPM */
static char *dbb04a7501544300d86d4d4ca6e80a04djmYGWXimOIZ8Vh3[] = {
/* columns rows colors chars-per-pixel */
"64 64 19 1 ",
"  c None",
". c black",
"X c #080605",
"o c #07060B",
"O c #0B0B0B",
"+ c #17110F",
"@ c #1B1512",
"# c #261C18",
"$ c #1C1A2E",
"% c #272727",
"& c #393939",
"* c #634F1F",
"= c #2E385B",
"- c gray34",
"; c gray39",
": c #D1986E",
"> c #A5A5A5",
", c #E8B88A",
"< c #F0D2B5",
/* pixels */
"                                                                ",
"                                                                ",
"                           ....OOO%%.                           ",
"                        OOOO%%.O.%....OO                        ",
"                       OO..OOO%...OOOO.OO                       ",
"                      OO..O..OO..OO..O...O                      ",
"                      O.....OOOO.OOOO.OO.%O                     ",
"                     OOOO.OOO.OOOO.%OO.O.%O                     ",
"                    OO.O%OOO.O%OO%O.%O.OOO%                     ",
"                    O%.O;O%..%OOOO;.%OO;%OOO                    ",
"                    O;O;O%;..%-OO%O%%-O%;%.OO                   ",
"                   O;OO;.%O.O;%OO;O%O%O%;%..O                   ",
"                   O;O%;O;O,%;,%O;%;OO;OO;%.O                   ",
"                  OOO-%%;,;<;,<;,O;%%O;%;O.%O                   ",
"                  O;O%%,<<<<<<<<<<,;%OO;OO%OO                   ",
"                  %O;O%@@@<<<@@@@<<;OOO;OO.% O                  ",
"                  O%;%%**<<<<**<<<<,%OOOO.;OO%                  ",
"                  ;%OO%,<<<<<<<<<<<<;%O%O.;%O                   ",
"                  >O%;%<<<<<<<<<<<<<,%%OOO%;%                   ",
"                  >%O%;%<<,,<<<<<<<<,%OO;%;%;%                  ",
"                   ;%;;%;<<<<<<<<<<<;%O%;; ;%                   ",
"                   ;>% %;OO;$,,,,;;$;;%;;> ;>                   ",
"                  ;>; >; > $=<<,,$$o%%;>;> >                    ",
"                 >  >; >> $oo$$$$oooo$$ > >>                    ",
"                  >     $$o$o=oooooo$$oo                        ",
"                         $o$$=oooo$$oo:o                        ",
"                         ,o$=$$$$$$o::,:o                       ",
"                         <,$=$$$$$$o:,<,o                       ",
"                        <<$=$$$$$$$$,<<,o                       ",
"                        <,$$$$$$$$$o,<<,                        ",
"                        <$$$$$$$$$$$<<<,                        ",
"                        <$$$$$$$$$$$<<<<                        ",
"                        <$$$$$$$$$$$<<<<                        ",
"                        <o$$$$$$$$$$<<<<                        ",
"                        <ooo$$$$$$$$<<<<                        ",
"                        <,oooooo$$$$<<<<                        ",
"                        <,$ooooooooo<<,,                        ",
"                       <,::$$$ooooooo,<<                        ",
"                       ,::,<<$$$$$$$$<<,,                       ",
"                       ::X#,,:<<<<<<,<,,:                       ",
"                         XX##,,,,,,,::::                        ",
"                          XXX########X                          ",
"                          +XXXXXXXXXX                           ",
"                          #+X+#++++#+                           ",
"                          ##+X+##++##                           ",
"                          ##+X+##+###                           ",
"                          ###X+##+###                           ",
"                          ###X+######                           ",
"                          ###X#######                           ",
"                          ###X#######                           ",
"                          +##X+######+                          ",
"                          X+#XX++###++                          ",
"                          XXX+XXX###+#                          ",
"                          XXX+XXX+####                          ",
"                          ++#X+++####+                          ",
"                         ++##X###+++#+                          ",
"                        X##+#X+X++##+#                          ",
"                       XXX###XXXX++###+                         ",
"                        .X+++X.XX.X++++                         ",
"                       &&OOOO.&&OOO.OO                          ",
"                       &OO&OO.&OO&OO..O                         ",
"                       .OOO....OOOO....                         ",
"                        ....  .......                           ",
"                                                                "
};
