/* XPM */
static char *_644926542f44f63dbde30e1ed244423nA60fPC59NSiaInh[] = {
/* columns rows colors chars-per-pixel */
"64 64 19 1 ",
"  c None",
". c black",
"X c #080605",
"o c #07060B",
"O c #0B0B0B",
"+ c #17110F",
"@ c #1B1512",
"# c #261C18",
"$ c #1C1A2E",
"% c #272727",
"& c #393939",
"* c #634F1F",
"= c #2E385B",
"- c gray34",
"; c gray39",
": c #D1986E",
"> c #A5A5A5",
", c #E8B88A",
"< c #F0D2B5",
/* pixels */
"                                                                ",
"                                                                ",
"                           .%%OOO....                           ",
"                        OO....%.O.%%OOOO                        ",
"                       OO.OOOO...%OOO..OO                       ",
"                      O...O..OO..OO..O..OO                      ",
"                     O%.OO.OOOO.OOOO.....O                      ",
"                     O%.O.OO%.OOOO.OOO.OOOO                     ",
"                     %OOO.O%.O%OO%O.OOO%O.OO                    ",
"                    OOO%;OO%.;OOOO%..%O;O.%O                    ",
"                   OO.%;%O-%%O%OO-%..;%O;O;O                    ",
"                   O..%;%O%O%O;OO%;O.O%.;OO;O                   ",
"                   O.%;OO;OO;%;O%,;%,O;O;%O;O                   ",
"                   O%.O;%;O%%;O,;<,;<;,;%%-OOO                  ",
"                   OO%OO;OO%;,<<<<<<<<<<,%%O;O                  ",
"                  O %.OO;OOO;<<@@@@<<<@@@%O;O%                  ",
"                  %OO;.OOOO%,<<<<**<<<<**%%;%O                  ",
"                   O%;.O%O%;<<<<<<<<<<<<,%OO%;                  ",
"                   %;%OOO%%,<<<<<<<<<<<<<%;%O>                  ",
"                  %;%;%;OO%,<<<<<<<<,,<<%;%O%>                  ",
"                   %; ;;%O%;<<<<<<<<<<<;%;;%;                   ",
"                   >; >;;%;;$;;,,,,$;OO;% %>;                   ",
"                    > >;>;%%o$$,,<<=$ > ;> ;>;                  ",
"                    >> > $$oooo$$$$oo$ >> ;>  >                 ",
"                        oo$$oooooo=o$o$$     >                  ",
"                        o:oo$$oooo=$$o$                         ",
"                       o:,::o$$$$$$=$o,                         ",
"                       o,<,:o$$$$$$=$,<                         ",
"                       o,<<,$$$$$$$$=$<<                        ",
"                        ,<<,o$$$$$$$$$,<                        ",
"                        ,<<<$$$$$$$$$$$<                        ",
"                        <<<<$$$$$$$$$$$<                        ",
"                        <<<<$$$$$$$$$$$<                        ",
"                        <<<<$$$$$$$$$$o<                        ",
"                        <<<<$$$$$$$$ooo<                        ",
"                        <<<<$$$$oooooo,<                        ",
"                        ,,<<ooooooooo$,<                        ",
"                        <<,ooooooo$$$::,<                       ",
"                       ,,<<$$$$$$$$<<,::,                       ",
"                       :,,<,<<<<<<:,,#X::                       ",
"                        ::::,,,,,,,##XX                         ",
"                          X########XXX                          ",
"                           XXXXXXXXXX+                          ",
"                           +#++++#+X+#                          ",
"                           ##++##+X+##                          ",
"                           ###+##+X+##                          ",
"                           ###+##+X###                          ",
"                           ######+X###                          ",
"                           #######X###                          ",
"                           #######X###                          ",
"                          +######+X##+                          ",
"                          ++###++XX#+X                          ",
"                          #+###XXX+XXX                          ",
"                          ####+XXX+XXX                          ",
"                          +####+++X#++                          ",
"                          +#+++###X##++                         ",
"                          #+##++X+X#+##X                        ",
"                         +###++XXXX###XXX                       ",
"                         ++++X.XX.X+++X.                        ",
"                          OO.OOO&&.OOOO&&                       ",
"                         O..OO&OO&.OO&OO&                       ",
"                         ....OOOO....OOO.                       ",
"                           .......  ....                        ",
"                                                                "
};
