/* XPM */
static char *fe1da7c9e92847a1959fedbc076c0ad7qD5HPIbobU7uHwCa[] = {
/* columns rows colors chars-per-pixel */
"64 64 25 1 ",
"  c black",
". c #080605",
"X c #07060B",
"o c #0B0B0B",
"O c #1E0703",
"+ c #17110F",
"@ c #1B1512",
"# c #2A0C07",
"$ c #310F09",
"% c #261C18",
"& c #391812",
"* c #1C1A2E",
"= c #272727",
"- c #393939",
"; c #5F3028",
": c #663931",
"> c #634F1F",
", c #764138",
"< c #2E385B",
"1 c gray34",
"2 c gray39",
"3 c #D1986E",
"4 c #A5A5A5",
"5 c #E8B88A",
"6 c #F0D2B5",
/* pixels */
"$$$$$$$$$$$$$$$$$$$$$$$$$$$$$$$,;;,,;;;;;,,;;;;;;;;;;;;;;;;;;;;;",
"$$$$$$$$$$$$$$$$$$$$$$$$$$#####$$;;;;$$$;;;;;;;;;;;;,,,;;;;;;;;;",
"##########$$$$$$$$$#####$$$ ==ooo    ;;,,;;;;;;;;;;,;;;;;;;;;;;;",
"$$#####$$$$$#####$$$$$$$oo    = o ==oooo$,;;;;;,;;;;;;;;;;;;;;;;",
"#####$$$##########$####oo oooo   =ooo  ooO,,;;;;,,,;;;;;;;;;;;;;",
"OOO&&&&&OOOOOOOOOOOOO&o   o  oo  oo  o  oo&&&OOOOOOOOOOOOO&&OOOO",
":::::::::&&&&&&&&&&&&o= oo oooo oooo     o::::::::::::::::::::::",
"::::::::::&&&&&&&&&&&o= o oo= oooo ooo oooo:::::::::::::::::::::",
"::::::::::&&&&&&&&&&&=ooo o= o=oo=o ooo=o oo::::::::::::::::::::",
":::::::::OOOOO&&&&&&ooo=2oo= 2oooo=  =o2o =o::::::::::::::::::::",
"OOO&OOOOO&&&&OOOOOOoo =2=o1==o=oo1=  2=o2o2oOOOO&OOOOOOOOOOOOOOO",
";,,;;;;;;;,,,;;;,,,o  =2=o=o=o2oo=2o o= 2oo2o$$$$$$$$$$$$$$$$$$$",
";;;;;,,,,;;,;;;,;;;o =2oo2oo2=2o=52=5o2o2=o2o$$$$$$$$$$$$$$$$$$$",
";;;,;;;;;;;;,,;;;;;o= o2=2o==2o526526252==1ooo$$$$$$$$$$$$$$$$$$",
";;;;;;;;;;;;;;;;;;;oo=oo2oo=2566666666665==o2o$$$$$$$$$$$$$$$$$$",
";;;;;;;;;;;;;;;;;;o;= oo2ooo266@@@@666@@@=o2o=#####$$$$###$$####",
";;;;;;;;;;;;;;;;;;=oo2 oooo=56666>>6666>>==2=o$$########$$####$$",
"&&OOOOOOOO&&&&&OOOOo=2 o=o=26666666666665=oo=2OOOOOOOOOOOOOOO&&&",
":::::::::::::::::::=2=ooo==56666666666666=2=o4&&&&&&&&&&::::::::",
"::::::::::::::::::=2=2=2oo=5666666665566=2=o=4&&&&&&&&&:::::::::",
":::::::::::::::::::=2:22=o=2666666666662=22=2&&&&&&&&&&:::::::::",
":::::::::::::::::::42:422=22*225555*2oo2=&=42&&&&&&&&OOO::::::::",
"OOOOOOOOOOOOOOOOO&OO4O4242==X**5566<*&4&24&242OOOOOOO&&OOOOOOOOO",
";$$$$$$$$$$$$$$$$$$$44$4$**XXXX****XX*$44$24&O4;;;,,;;;;;;;;;;;;",
"$$$;$$$$$$$$$$$$$$$$$$$$XX**XXXXXX<X*X**$$$$$4;,;;;;;;;;;;;;;;;$",
";;;$$$$$$$$$$$$$$$$$$$$$X3XX**XXXX<**X*$$$$$$;;;,,,;;;;;;;;;;;;;",
"$$$$$$$$$$$$$$$$$$$$$$$X3533X******<*X5$$$$$$;;;;;;,;;;;;;;;$;$$",
"##$$$#######$$$$$$$$$$$X5653X******<*56######;;;;;;;;;;;;;;;;;;$",
"$####$$##$$$###########X5665********<*66###$OO;;;;;;;;;;;;$$$$$$",
"OOOOOOOOO&&OOOOO&&OO&&&&5665X*********56&&&&&&OOOOOOOOOO&&&&&OOO",
":::&&&&&&&&&&&&&&&&&OOO&5666***********6::::::::::::::::::::::::",
"::::&&&&&&&&&&&&&&&&&&&&6666***********6::::::::::::::::::::::::",
"::::&&&&&&&&&&&&&&&&&&&&6666***********6::::::::::::::::::::::::",
":::&&&OOOO&&&&&&&&&&&&&&6666**********X6::::::::::::::::::::::::",
"OOOOOO&&&OOOOOOO&&&&&&&&6666********XXX6OO&&&&&&&&&&&&OOOOOOOOOO",
"$;;;;;;;;;;;;;;;;;;;;;;;6666****XXXXXX56$$$$$$$$$$$$$$$$$$$$$$$$",
";;;;;;;;;;;;;;;;;;;;;,,;5566XXXXXXXXX*56$$$$$$$$$$$$$$$$$$$$;;;;",
";;;;;;;;;;;;;;;;;;;;,,,,665XXXXXXX***3356$$$$$$$$$$$$$$$$$$$$$;;",
";;$$;;;;;;;;;;;;;;;;;;;5566********665335$$$$$$$$$$$$$$$$$$$$;$;",
"$$;;;$;;;;;;;;;;;;;;;;;35565666666355%.33##$$$$$$$$$#######$####",
";$$;;;;;;;;;;;;;;;;;;;;;33335555555%%..#$$$#####$$######$$####$$",
"&&&&OOOOOOOOOOO&&&OOOOOOO&.%%%%%%%%...OOO&&OO&OOOOOOOOOOOOOOO&&&",
"::::::::::::::::::::::&&&&&..........+&&&OO:::::::::::::::::::::",
":::::::::::::::::::::::&&&&+%++++%+.+%&&&&::::::::::::::::::::::",
":::::::::::::::::::::::&&&&%%++%%+.+%%&&&&::::::::::::::::::::::",
"::::::::::::::::::::::&&OOO%%%+%%+.+%%&&&&O:::::::::::::::::::::",
"OOO&&&&OOOOOOOOO&&&&&OOO&&O%%%+%%+.%%%&&&&&OO&&&OOOOOOO&&&&&&&&O",
"$$$$$$$$$$$$$$$$$$$$$$$$$$$%%%%%%+.%%%$$$$$$$OO,,;;;;;,,,;;;;;;;",
"$$$$$$$$$$$$$$$$$$$$$$$$$$$%%%%%%%.%%%$$$$$$$$;;;,,,;;;;;;;;;;;;",
"$$$$$$$$$$$$$$$$$$$$$$$$$$$%%%%%%%.%%%$$$$$$$$;,;;;;;,,;;;;;;;;;",
"$$$$$$$$$$$$$$$$$$$$$$$$$$+%%%%%%+.%%+$$$$$$$$;;;;;;;;;;;;;;;;;;",
"$#####$$#$#########$######++%%%++..%+.##$$####;;;;;;;;;;;;;;;;;;",
"########$#$$$$####$#######%+%%%...+...$#####$OO;;;;;;;;;;;;;;;;;",
"OO&&&OOOOO&&&&&&OOOOOOOOOO%%%%+...+...OOO&O&&&&OOOO&&&&&&&&&OOOO",
"::::::&&&&&&&&OOO:::::::::+%%%%+++.%++:::::OO&&&&&&&&&&&&&&&&&&:",
":::::::&&&&&&&&&::::::::::+%+++%%%.%%++:::::&&&&&&&&&&&&&&&&&&::",
":::::::&&&&&&&&&::::::::::%+%%++.+.%+%%.::::&&&&&&&&&&&&&&&&&&::",
"::::::OO&&&&&&OOO::::::::+%%%++....%%%...::OOO&&&&&&&&&&&&&&&OO:",
"OOOOOOO&&OOO&&&&&OO&&&OOO++++. .. .+++. &OO&&OOOO&&&&&&&&OOOO&&O",
";;;;;;;;;,,;;;;;;;;,,OO#$$oo ooo-- oooo--$$$$$$$$$$$$$$$$$$$$$$$",
";;;;,,,,;;;;;;;;,;;;,,;##o  oo-oo- oo-oo-$$$$$$$$$$$$$$$$$$$$$$$",
";;;;;;;;;;;;;;;;;,,,;;;;,    oooo    ooo $$$$$$$$$$$$$$$$####$$$",
";;;;;;;;;;;;;;;;;;;;;;;;$;,       $$    $$$$$$$$$$$$$$########$$",
";;;;;;;;;;;;;;;;;;;;;;;;;;;;;;;;;,,###$$$###$$$$$$$$$$$$$$$$$$##"
};
