/* XPM */
static char *_32249e148764fc29f9a8aedbeb8facbGcffdDICY5GHJcz2[] = {
/* columns rows colors chars-per-pixel */
"64 64 6 1 ",
"  c #2E2516",
". c #3D3220",
"X c #483C26",
"o c #63543B",
"O c #D9C094",
"+ c #E8D0A7",
/* pixels */
"OOOOOOOOOOOOOOOOOOOOOOOOOOOOOOOOOOOOOOOOOOOOOOOOOOOOOOOOOOOOOOOO",
"OOOOOOOOOOOOOOOOOOOOOOOOOOOOOOOOOOOOOOOOOOOOOOOOOOOOOOOOOOOOOOOO",
"++++++++++++++++++++++++++++++++++++++++++++++++++++++++++++++++",
"++++++++++++++++++++++++++++++++++++++++++++++++++++++++++++++++",
"++++++++++++++++++++++++++++++++++++++++++++++++++++++++++++++++",
"++++++++++++++++++++++++++++++++++++++++++++++++++++++++++++++++",
"++++++++++++++++++++++++++++++++++++++++++++++++++++++++++++++++",
"++++++++++++OOOOOOOO++++++++++++++++++++++++OOOOOOOO++++++++++++",
"+++++++++OOOOOOOOOOOOOO++++++++++++++++++OOOOOOOOOOOOOO+++++++++",
"+++++++++OOOO++++++OOOO++++++++++++++++++OOOO++++++OOOO+++++++++",
"+++++++++++++++OO++++++++++++++++++++++++++++++OO+++++++++++++++",
"+++++++++OOOO++++++OOOO++++++++++++++++++OOOO++++++OOOO+++++++++",
"+++++++++OOOOOOOOOOOOOO++++++++++++++++++OOOOOOOOOOOOOO+++++++++",
"++++++++++++OOOOOOOO++++++++++++++++++++++++OOOOOOOO++++++++++++",
"++++++++++++++++++++++++++++++++++++++++++++++++++++++++++++++++",
"++++++++++++++++++++++++++++++++++++++++++++++++++++++++++++++++",
"++++++++++++++++++++++++++++++++++++++++++++++++++++++++++++++++",
"++++++++++++++++++++++++++++++++++++++++++++++++++++++++++++++++",
"OOOO++++++++++++++++++++++++OOOOOOOO++++++++++++++++++++++++OOOO",
"OOOOOOO++++++++++++++++++OOOOOOOOOOOOOO++++++++++++++++++OOOOOOO",
"+++OOOO++++++++++++++++++OOOO++++++OOOO++++++++++++++++++OOOO+++",
"O++++++++++++++++++++++++++++++OO++++++++++++++++++++++++++++++O",
"+++OOOO++++++++++++++++++OOOO++++++OOOO++++++++++++++++++OOOO+++",
"OOOOOOO++++++++++++++++++OOOOOOOOOOOOOO++++++++++++++++++OOOOOOO",
"OOOO++++++++++++++++++++++++OOOOOOOO++++++++++++++++++++++++OOOO",
"++++++++++++++++++++++++++++++++++++++++++++++++++++++++++++++++",
"++++++++++++++++++++++++++++++++++++++++++++++++++++++++++++++++",
"++++++++++++++++++++++++++++++++++++++++++++++++++++++++++++++++",
"++++++++++++++++++++++++++++++++++++++++++++++++++++++++++++++++",
"++++++++++++OOOOOOOO++++++++++++++++++++++++OOOOOOOO++++++++++++",
"+++++++++OOOOOOOOOOOOOO++++++++++++++++++OOOOOOOOOOOOOO+++++++++",
"+++++++++OOOO++++++OOOO++++++++++++++++++OOOO++++++OOOO+++++++++",
"+++++++++++++++OO++++++++++++++++++++++++++++++OO+++++++++++++++",
"+++++++++OOOO++++++OOOO++++++++++++++++++OOOO++++++OOOO+++++++++",
"+++++++++OOOOOOOOOOOOOO++++++++++++++++++OOOOOOOOOOOOOO+++++++++",
"++++++++++++OOOOOOOO++++++++++++++++++++++++OOOOOOOO++++++++++++",
"++++++++++++++++++++++++++++++++++++++++++++++++++++++++++++++++",
"++++++++++++++++++++++++++++++++++++++++++++++++++++++++++++++++",
"++++++++++++++++++++++++++++++++++++++++++++++++++++++++++++++++",
"OOOOOOOOOOOOOOOOOOOOOOOOOOOOOOOOOOOOOOOOOOOOOOOOOOOOOOOOOOOOOOOO",
"OOOOOOOOOOOOOOOOOOOOOOOOOOOOOOOOOOOOOOOOOOOOOOOOOOOOOOOOOOOOOOOO",
"XXXXXXXXXXXXXXXXXXXXXXXXXXXXXXXXXXXXXXXXXXXXXXXXXXXXXXXXXXXXXXXX",
"XXXXXXXXXXXXXXXXXXXXXXXXXXXXXXXXXXXXXXXXXXXXXXXXXXXXXXXXXXXXXXXX",
"................................................................",
"                                                                ",
"                                                                ",
"oooooooooooooooooooooooooooooooooooooooooooooooooooooooooooooooo",
"oooooooooooooooooooooooooooooooooooooooooooooooooooooooooooooooo",
"oooooooooooooooooooooooooooooooooooooooooooooooooooooooooooooooo",
"oooooooooooooooooooooooooooooooooooooooooooooooooooooooooooooooo",
"oooooooooooooooooooooooooooooooooooooooooooooooooooooooooooooooo",
"oooooooooooooooooooooooooooooooooooooooooooooooooooooooooooooooo",
"oooooooooooooooooooooooooooooooooooooooooooooooooooooooooooooooo",
"oooooooooooooooooooooooooooooooooooooooooooooooooooooooooooooooo",
"oooooooooooooooooooooooooooooooooooooooooooooooooooooooooooooooo",
"oooooooooooooooooooooooooooooooooooooooooooooooooooooooooooooooo",
"oooooooooooooooooooooooooooooooooooooooooooooooooooooooooooooooo",
"oooooooooooooooooooooooooooooooooooooooooooooooooooooooooooooooo",
"XXXXXXXXXXXXXXXXXXXXXXXXXXXXXXXXXXXXXXXXXXXXXXXXXXXXXXXXXXXXXXXX",
"XXXXXXXXXXXXXXXXXXXXXXXXXXXXXXXXXXXXXXXXXXXXXXXXXXXXXXXXXXXXXXXX",
"XXXXXXXXXXXXXXXXXXXXXXXXXXXXXXXXXXXXXXXXXXXXXXXXXXXXXXXXXXXXXXXX",
"....XXXXXXXXXXXXXXXXXXXXXXX..........XXXXXXXXXXXXXXXXXXXXXXX....",
"    .......................          .......................    ",
"                                                                "
};
